<?xml version="1.0" encoding="iso-8859-1"?>
<!-- Generator: Adobe Illustrator 19.0.0, SVG Export Plug-In . SVG Version: 6.00 Build 0)  -->
<svg version="1.1" id="Capa_1" xmlns="http://www.w3.org/2000/svg" xmlns:xlink="http://www.w3.org/1999/xlink" x="0px" y="0px"
	 viewBox="0 0 384 384" style="enable-background:new 0 0 384 384;" xml:space="preserve">
<g>
	<ellipse style="fill:#00FFB0;" cx="86.312" cy="227.289" rx="70.312" ry="70.28"/>
	<ellipse style="fill:#00FFB0;" cx="297.68" cy="297.761" rx="70.312" ry="70.28"/>
</g>
<g>
	<path style="fill:#000A64;" d="M376.312,2.329c-4.776-2.896-10.712-3.096-15.68-0.528c-0.32,0.168-33.72,16.544-98.32,16.544
		c-64.76,0-98.072-16.416-98.328-16.544c-4.96-2.568-10.896-2.36-15.672,0.528c-4.776,2.904-7.688,8.088-7.688,13.672v144.312
		c-14.848-12.056-33.744-19.312-54.312-19.312C38.72,141.001,0,179.713,0,227.289s38.72,86.28,86.312,86.28
		s86.312-38.704,86.312-86.28v-118c18.76,5.464,48.728,11.48,89.688,11.48s70.928-6.016,89.688-11.48v121.456
		c-14.848-12.056-33.744-19.312-54.312-19.312c-47.592,0-86.312,38.704-86.312,86.28s38.72,86.28,86.312,86.28
		C345.28,384.001,384,345.297,384,297.721V16.001C384,10.417,381.088,5.233,376.312,2.329z M86.312,281.569
		C56.36,281.569,32,257.217,32,227.289c0-29.936,24.36-54.288,54.312-54.288s54.312,24.352,54.312,54.288
		C140.624,257.217,116.264,281.569,86.312,281.569z M262.312,88.769c-45.848,0-75.936-8.232-89.688-13.08V38.865
		c18.76,5.464,48.728,11.48,89.688,11.48S333.24,44.329,352,38.865v36.824C338.232,80.537,308.12,88.769,262.312,88.769z
		 M297.688,352.001c-29.952,0-54.312-24.352-54.312-54.28s24.36-54.28,54.312-54.28c29.952,0,54.312,24.352,54.312,54.28
		S327.64,352.001,297.688,352.001z"/>
	<path style="fill:#000A64;" d="M297.688,255.825c-23.104,0-41.904,18.792-41.904,41.896c0,8.832,7.168,16,16,16s16-7.168,16-16
		c0-5.456,4.448-9.896,9.904-9.896c8.832,0,16-7.168,16-16S306.52,255.825,297.688,255.825z"/>
	<path style="fill:#000A64;" d="M86.312,185.393c-23.104,0-41.904,18.792-41.904,41.896c0,8.832,7.168,16,16,16s16-7.168,16-16
		c0-5.456,4.448-9.896,9.904-9.896c8.832,0,16-7.168,16-16S95.152,185.393,86.312,185.393z"/>
</g>
<g>
</g>
<g>
</g>
<g>
</g>
<g>
</g>
<g>
</g>
<g>
</g>
<g>
</g>
<g>
</g>
<g>
</g>
<g>
</g>
<g>
</g>
<g>
</g>
<g>
</g>
<g>
</g>
<g>
</g>
</svg>
