<?xml version="1.0" encoding="iso-8859-1"?>
<!-- Generator: Adobe Illustrator 19.0.0, SVG Export Plug-In . SVG Version: 6.00 Build 0)  -->
<svg version="1.1" id="Layer_1" xmlns="http://www.w3.org/2000/svg" xmlns:xlink="http://www.w3.org/1999/xlink" x="0px" y="0px"
	 viewBox="0 0 512 512" style="enable-background:new 0 0 512 512;" xml:space="preserve">
<rect x="141.714" y="221.924" style="fill:#CFF09E;" width="228.58" height="68.159"/>
<g>
	<path style="fill:#507C5C;" d="M370.287,304.581H141.713c-8.009,0-14.502-6.493-14.502-14.502V221.92
		c0-8.009,6.493-14.502,14.502-14.502h228.575c8.009,0,14.502,6.493,14.502,14.502v68.159
		C384.789,298.088,378.297,304.581,370.287,304.581z M156.215,275.577h199.571v-39.155H156.215V275.577z"/>
	<path style="fill:#507C5C;" d="M497.497,512H14.503c-8.009,0-14.502-6.493-14.502-14.502V14.502C0.001,6.493,6.495,0,14.503,0
		h482.995c8.009,0,14.502,6.493,14.502,14.502v385.151c0,8.009-6.493,14.502-14.502,14.502s-14.502-6.493-14.502-14.502V29.004
		H29.005v453.992h468.493c8.009,0,14.502,6.493,14.502,14.502S505.507,512,497.497,512z"/>
	<path style="fill:#507C5C;" d="M427.065,441.568H84.935c-8.009,0-14.502-6.493-14.502-14.502V154.242
		c0-8.009,6.493-14.502,14.502-14.502c8.009,0,14.502,6.493,14.502,14.502v258.323h313.127V99.436H84.935
		c-8.009,0-14.502-6.493-14.502-14.502s6.493-14.502,14.502-14.502h342.131c8.009,0,14.502,6.493,14.502,14.502v342.132
		C441.567,435.076,435.075,441.568,427.065,441.568z"/>
</g>
<g>
</g>
<g>
</g>
<g>
</g>
<g>
</g>
<g>
</g>
<g>
</g>
<g>
</g>
<g>
</g>
<g>
</g>
<g>
</g>
<g>
</g>
<g>
</g>
<g>
</g>
<g>
</g>
<g>
</g>
</svg>
